# xmcd CD database file
#
# Track frame offsets:
#	183
#	13585
#	26333
#	41038
#	56250
#	69263
#	83178
#	98400
#	113735
#	124908
#	137660
#	154160
#	168840
#	180268
#	192013
#	204770
#	215863
#	227523
#	240025
#	254858
#	266100
#	277123
#	289088
#
# Disc length: 4015 seconds
#
# Revision: 0
# Processed by: cddbd v1.5.1PL2 Copyright (c) Steve Scherf et al.
# Submitted via: CDex 1.51
#
DISCID=360fad17
DTITLE=Jimmie Noone - The Complete Recordings Vol.1 [CD3]
DYEAR=1991
DGENRE=Jazz
TTITLE0=Jimmie Noone's Apex Club Orchestra - Through
TTITLE1=Jimmie Noone's Apex Club Orchestra - Satisfied
TTITLE2=Jimmie Noone's Apex Club Orchestra - I'm Doin' What I'm Doin' For Love
TTITLE3=Jimmie Noone's Apex Club Orchestra - He's A Good Man To Have Around
TTITLE4=Jimmie Noone's Apex Club Orchestra - My Melancholy Baby
TTITLE5=Jimmie Noone's Apex Club Orchestra - After You've Gone
TTITLE6=Jimmie Noone's Apex Club Orchestra - Love
TTITLE7=Jimmie Noone's Apex Club Orchestra - Love Me
TTITLE8=Jimmie Noone's Apex Club Orchestra - El Rado Scuffle
TTITLE9=Jimmie Noone's Apex Club Orchestra - Deep Trouble
TTITLE10=Jimmie Noone's Apex Club Orchestra - Cryin' For The Carolines
TTITLE11=Jimmie Noone's Apex Club Orchestra - Have A Little Faith In Me
TTITLE12=Jimmie Noone's Apex Club Orchestra - Should I?
TTITLE13=Jimmie Noone's Apex Club Orchestra - I'm Following You
TTITLE14=Jimmie Noone's Apex Club Orchestra - When You Are Smiling
TTITLE15=Jimmie Noone's Apex Club Orchestra - I Lost My Gal From Memphis
TTITLE16=Jimmie Noone's Apex Club Orchestra - On Revival Day
TTITLE17=Jimmie Noone's Apex Club Orchestra - I'm Drifting Back To Dreamland
TTITLE18=Jimmie Noone's Apex Club Orchestra - Virginia Lee
TTITLE19=Jimmie Noone's Apex Club Orchestra - So Sweet
TTITLE20=Jimmie Noone's Apex Club Orchestra - So Sweet
TTITLE21=Jimmie Noone's Apex Club Orchestra - San
TTITLE22=Jimmie Noone's Apex Club Orchestra - San
EXTD=YEAR: 1991
EXTT0=
EXTT1=
EXTT2=
EXTT3=
EXTT4=
EXTT5=
EXTT6=
EXTT7=
EXTT8=
EXTT9=
EXTT10=
EXTT11=
EXTT12=
EXTT13=
EXTT14=
EXTT15=
EXTT16=
EXTT17=
EXTT18=
EXTT19=
EXTT20=
EXTT21=
EXTT22=
PLAYORDER=
